<?xml version="1.0"?>
<svg xmlns="http://www.w3.org/2000/svg" width="506" height="505" viewBox="0 0 506 505" fill="none">
<g clip-path="url(#clip0_5:126)">
<path d="M253.339 494.751C387.333 494.751 495.957 386.127 495.957 252.133C495.957 118.139 387.333 9.51501 253.339 9.51501C119.344 9.51501 10.7207 118.139 10.7207 252.133C10.7207 386.127 119.344 494.751 253.339 494.751Z" stroke="#62DBDB" stroke-width="18.6071"/>
<path d="M336.013 77.6464C343.175 81.1075 345.547 85.6576 345.021 93.7518C343.341 119.437 331.278 139.65 312.275 156.18C296.077 170.273 277.443 180.065 257.239 187.108C237.175 194.103 218.448 203.527 203.099 218.645C196.362 225.271 191.009 232.876 188.342 242.06C183.201 259.752 188.831 274.676 200.654 287.791C211.323 299.633 224.761 307.57 238.919 314.501C250.114 319.984 262.251 323.066 273.529 328.309C294.674 338.138 313.696 350.773 328.02 369.583C338.505 383.353 344.135 398.914 345.058 416.191C345.574 425.882 340 432.085 331.259 431.577C325.602 431.245 320.147 426.455 320.046 420.778C319.575 393.801 304.116 376.366 283.248 362.338C270.437 353.727 256.141 348.346 241.771 342.965C220.682 335.074 201.3 324.109 185.213 308.013C173.824 296.615 165.508 283.407 162.499 267.348C158.337 245.161 164.567 225.677 178.531 208.418C190.104 194.122 204.964 183.997 220.986 175.303C234.018 168.243 248.278 164.255 261.725 158.312C278.633 150.836 294.019 141.117 305.971 126.655C314.379 116.484 319.372 104.873 319.75 91.6567C319.935 84.9746 322.602 80.4983 328.435 77.6372C330.946 77.6464 333.484 77.6464 336.013 77.6464Z" fill="#62DBDB"/>
<path d="M177.809 77.645C183.817 80.5523 186.217 85.2224 186.494 92.006C187.269 110.954 196.997 125.417 210.841 137.516C217.892 143.682 225.709 148.73 233.914 153.206C234.782 153.677 236.157 153.908 236.083 155.135C236.009 156.326 234.634 156.455 233.73 156.834C226.503 159.842 219.406 163.137 212.585 166.995C211.072 167.854 209.77 168.204 208.146 167.097C189.484 154.397 174.163 138.91 166.041 117.322C163.014 109.274 161.694 100.894 161.168 92.366C160.743 85.3793 163.605 80.34 170.204 77.645C172.742 77.645 175.271 77.645 177.809 77.645Z" fill="#62DBDB"/>
<path d="M345.091 253.266C344.731 273.875 337.329 290.064 324.777 304.12C317.209 312.593 308.376 319.57 298.898 325.791C296.987 327.046 295.474 327.064 293.545 325.929C287.001 322.053 280.153 318.776 273.184 315.731C272.105 315.26 270.286 315.223 270.305 313.719C270.323 312.556 271.957 312.297 272.944 311.78C284.204 305.837 294.8 298.951 303.688 289.74C313.249 279.828 319.913 268.448 319.858 254.235C319.812 240.963 313.711 230.137 304.971 220.63C295.889 210.755 284.795 203.584 273.064 197.298C272.031 196.745 270.24 196.615 270.333 195.111C270.406 193.874 272.058 193.791 273.064 193.348C280.033 190.312 286.853 186.98 293.452 183.205C294.837 182.411 296.156 181.516 297.901 182.651C316.424 194.613 332.197 209.038 340.485 230.164C343.596 238.065 344.869 246.334 345.091 253.266Z" fill="#62DBDB"/>
<path d="M161.193 417.354C161.821 395.896 170.173 377.667 184.488 361.987C191.272 354.566 198.951 348.179 207.239 342.503C209.168 341.183 210.737 340.879 212.869 342.125C219.237 345.835 225.938 348.89 232.74 351.723C233.958 352.231 235.905 352.379 236.035 353.819C236.182 355.388 234.189 355.6 233.044 356.237C220.271 363.334 208.623 371.807 199.44 383.362C191.373 393.496 186.546 404.987 186.509 417.926C186.491 424.996 181.101 432.01 173.357 431.632C166.011 431.272 161.036 425.605 161.193 417.354Z" fill="#62DBDB"/>
<path d="M253.085 89.3182C270.002 89.3182 286.911 89.309 303.828 89.3275C308.489 89.3275 308.729 89.6413 308.074 94.3114C306.902 102.59 306.902 102.59 298.697 102.59C267.4 102.59 236.103 102.59 204.815 102.59C199.665 102.59 199.48 102.433 198.53 97.4309C196.979 89.3275 196.979 89.3275 205.119 89.3275C221.105 89.3182 237.09 89.3182 253.085 89.3182Z" fill="#62DBDB"/>
<path d="M253.076 419.691C236.278 419.691 219.481 419.701 202.683 419.691C197.69 419.691 197.459 419.415 198.142 414.661C199.314 406.429 199.314 406.429 207.575 406.429C238.872 406.429 270.169 406.429 301.456 406.429C306.588 406.429 306.736 406.576 307.686 411.634C309.2 419.691 309.2 419.691 301.05 419.691C285.065 419.691 269.07 419.691 253.076 419.691Z" fill="#62DBDB"/>
<path d="M253.255 248.077C269.942 248.077 286.638 248.197 303.324 247.984C307.025 247.938 308.29 249.397 308.41 252.673C308.438 253.476 308.502 254.288 308.474 255.091C308.308 260.518 307.884 260.933 302.512 260.933C269.48 260.933 236.448 260.933 203.416 260.933C198.386 260.933 198.053 260.601 197.786 255.479C197.758 254.907 197.758 254.325 197.777 253.753C197.98 248.446 198.349 248.077 203.536 248.077C220.103 248.077 236.679 248.077 253.255 248.077Z" fill="#62DBDB"/>
<path d="M252.894 389.221C239.89 389.221 226.885 389.231 213.89 389.203C212.82 389.203 211.306 389.674 210.863 388.298C210.522 387.237 211.814 386.591 212.441 385.806C218.256 378.58 225.15 375.063 235.054 375.728C249.368 376.697 263.803 376.06 278.183 375.912C281.505 375.876 284.246 376.586 286.6 378.949C289.036 381.395 291.593 383.702 294.057 386.12C294.685 386.739 295.737 387.412 295.349 388.372C294.888 389.535 293.568 389.203 292.581 389.203C279.364 389.231 266.129 389.221 252.894 389.221Z" fill="#62DBDB"/>
<path d="M253.089 119.789C266.094 119.789 279.089 119.78 292.093 119.807C293.191 119.807 294.677 119.346 295.268 120.518C295.905 121.801 294.317 122.382 293.717 123.287C293.588 123.471 293.385 123.61 293.247 123.785C287.653 130.8 280.833 133.827 271.447 133.264C257.233 132.406 242.928 132.922 228.668 133.116C224.82 133.172 221.718 132.202 219.033 129.526C216.753 127.255 214.381 125.077 212.101 122.807C211.492 122.198 210.449 121.579 210.929 120.546C211.381 119.549 212.535 119.817 213.421 119.817C222.854 119.789 232.286 119.798 241.719 119.798C245.493 119.789 249.287 119.789 253.089 119.789Z" fill="#62DBDB"/>
<path d="M253.337 230.509C239.76 230.509 226.184 230.518 212.607 230.49C211.518 230.49 210.032 231.016 209.46 229.816C208.86 228.561 210.374 227.915 211.011 227.02C211.075 226.928 211.177 226.854 211.251 226.771C216.918 220.098 223.581 216.941 232.857 217.44C248.464 218.27 264.145 217.753 279.788 217.606C283.24 217.569 286.064 218.372 288.529 220.781C290.753 222.95 293.134 224.943 295.377 227.094C296.161 227.85 297.601 228.589 297.168 229.789C296.706 231.081 295.155 230.499 294.085 230.499C281.431 230.536 268.769 230.527 256.115 230.527C255.174 230.509 254.251 230.509 253.337 230.509Z" fill="#62DBDB"/>
<path d="M253.385 278.505C266.961 278.505 280.538 278.496 294.114 278.533C295.176 278.533 296.689 277.933 297.16 279.29C297.529 280.333 296.191 280.97 295.563 281.754C295.489 281.846 295.397 281.911 295.323 282.003C289.518 288.879 282.679 292.146 273.136 291.602C257.769 290.716 242.309 291.26 226.896 291.445C223.177 291.491 220.177 290.605 217.556 288.03C215.507 286.018 213.264 284.2 211.215 282.188C210.385 281.366 208.797 280.573 209.471 279.17C210.016 278.025 211.548 278.542 212.646 278.542C226.232 278.496 239.808 278.505 253.385 278.505Z" fill="#62DBDB"/>
</g>
<defs>
<clipPath id="clip0_5:126">
<rect width="505" height="505" fill="white" transform="translate(0.5)"/>
</clipPath>
</defs>
</svg>
