<?xml version="1.0"?>
<svg xmlns="http://www.w3.org/2000/svg" width="505" height="505" viewBox="0 0 505 505" fill="none">
<path d="M252.412 494.751C386.406 494.751 495.03 386.127 495.03 252.133C495.03 118.139 386.406 9.51489 252.412 9.51489C118.418 9.51489 9.79395 118.139 9.79395 252.133C9.79395 386.127 118.418 494.751 252.412 494.751Z" stroke="#15777A" stroke-width="18.6071"/>
<path fill-rule="evenodd" clip-rule="evenodd" d="M382.899 177.634V179.223H384.489H414.362C416.392 179.223 417.633 179.775 418.396 180.613C419.185 181.481 419.719 182.938 419.719 185.275C419.719 187.613 419.185 189.07 418.396 189.938C417.633 190.776 416.392 191.328 414.362 191.328H384.489H382.899V192.917V222.096V223.685H384.489H414.362C416.392 223.685 417.633 224.237 418.396 225.076C419.185 225.943 419.719 227.4 419.719 229.738C419.719 232.075 419.185 233.532 418.396 234.4C417.633 235.239 416.392 235.79 414.362 235.79H384.489H382.899V237.379V266.558V268.147H384.489H414.362C416.392 268.147 417.633 268.699 418.396 269.538C419.185 270.405 419.719 271.862 419.719 274.2C419.719 276.537 419.185 277.994 418.396 278.862C417.633 279.701 416.392 280.252 414.362 280.252H384.489H382.899V281.842V311.02V312.61H384.489H414.362C416.392 312.61 417.633 313.161 418.396 314C419.185 314.867 419.719 316.324 419.719 318.662C419.719 320.999 419.185 322.456 418.396 323.324C417.633 324.163 416.392 324.714 414.362 324.714H384.489H382.899V326.304V340.893C382.899 352.991 378.772 363.119 370.513 371.378C362.253 379.638 352.125 383.765 340.027 383.765H325.438H323.848V385.355V415.228C323.848 417.257 323.297 418.499 322.458 419.262C321.59 420.051 320.134 420.585 317.796 420.585C315.458 420.585 314.002 420.051 313.134 419.262C312.295 418.499 311.744 417.257 311.744 415.228V385.355V383.765H310.154H280.976H279.386V385.355V415.228C279.386 417.257 278.835 418.499 277.996 419.262C277.128 420.051 275.672 420.585 273.334 420.585C270.996 420.585 269.54 420.051 268.672 419.262C267.833 418.499 267.282 417.257 267.282 415.228V385.355V383.765H265.692H236.514H234.924V385.355V415.228C234.924 417.257 234.373 418.499 233.534 419.262C232.666 420.051 231.21 420.585 228.872 420.585C226.534 420.585 225.077 420.051 224.21 419.262C223.371 418.499 222.82 417.257 222.82 415.228V385.355V383.765H221.23H192.052H190.462V385.355V415.228C190.462 417.257 189.911 418.499 189.072 419.262C188.204 420.051 186.748 420.585 184.41 420.585C182.072 420.585 180.615 420.051 179.748 419.262C178.909 418.499 178.358 417.257 178.358 415.228V385.355V383.765H176.768H162.179C150.08 383.765 139.953 379.638 131.693 371.378C123.434 363.119 119.306 352.991 119.306 340.893V326.304V324.714H117.717H87.8437C85.8142 324.714 84.5724 324.163 83.8097 323.324C83.0209 322.456 82.4863 320.999 82.4863 318.662C82.4863 316.324 83.0209 314.867 83.8097 314C84.5724 313.161 85.8142 312.61 87.8437 312.61H117.717H119.306V311.02V281.842V280.252H117.717H87.8437C85.8142 280.252 84.5724 279.701 83.8097 278.862C83.0209 277.994 82.4863 276.537 82.4863 274.2C82.4863 271.862 83.0209 270.405 83.8097 269.538C84.5724 268.699 85.8142 268.147 87.8437 268.147H117.717H119.306V266.558V237.379V235.79H117.717H87.8437C85.8142 235.79 84.5724 235.239 83.8097 234.4C83.0209 233.532 82.4863 232.075 82.4863 229.738C82.4863 227.4 83.0209 225.943 83.8097 225.076C84.5724 224.237 85.8142 223.685 87.8437 223.685H117.717H119.306V222.096V192.917V191.328H117.717H87.8437C85.8142 191.328 84.5724 190.776 83.8097 189.938C83.0209 189.07 82.4863 187.613 82.4863 185.275C82.4863 182.938 83.0209 181.481 83.8097 180.613C84.5724 179.775 85.8142 179.223 87.8437 179.223H117.717H119.306V177.634V163.044C119.306 150.946 123.434 140.818 131.693 132.559C139.953 124.299 150.08 120.172 162.179 120.172H176.768H178.358V118.582V88.7095C178.358 86.6799 178.909 85.4381 179.748 84.6754C180.615 83.8866 182.072 83.3521 184.41 83.3521C186.748 83.3521 188.204 83.8866 189.072 84.6754C189.911 85.4381 190.462 86.6799 190.462 88.7095V118.582V120.172H192.052H221.23H222.82V118.582V88.7095C222.82 86.6799 223.371 85.4381 224.21 84.6754C225.077 83.8866 226.534 83.3521 228.872 83.3521C231.21 83.3521 232.666 83.8866 233.534 84.6754C234.373 85.4381 234.924 86.6799 234.924 88.7095V118.582V120.172H236.514H265.692H267.282V118.582V88.7095C267.282 86.6799 267.833 85.4381 268.672 84.6754C269.54 83.8866 270.996 83.3521 273.334 83.3521C275.672 83.3521 277.128 83.8866 277.996 84.6754C278.835 85.4381 279.386 86.6799 279.386 88.7095V118.582V120.172H280.976H310.154H311.744V118.582V88.7095C311.744 86.6799 312.295 85.4381 313.134 84.6754C314.002 83.8866 315.458 83.3521 317.796 83.3521C320.134 83.3521 321.59 83.8866 322.458 84.6754C323.297 85.4381 323.848 86.6799 323.848 88.7095V118.582V120.172H325.438H340.027C352.125 120.172 362.253 124.299 370.513 132.559C378.772 140.818 382.899 150.946 382.899 163.044V177.634ZM295.565 298.02H297.155V296.431V207.507V205.917H295.565H206.641H205.051V207.507V296.431V298.02H206.641H295.565ZM340.027 357.072C345.135 357.072 349.258 355.794 352.093 352.959C354.928 350.124 356.206 346.001 356.206 340.893V163.044C356.206 157.936 354.928 153.813 352.093 150.978C349.258 148.144 345.135 146.866 340.027 146.866H162.179C157.071 146.866 152.948 148.144 150.113 150.978C147.278 153.813 146 157.936 146 163.044V340.893C146 346.001 147.278 350.124 150.113 352.959C152.948 355.794 157.071 357.072 162.179 357.072H340.027ZM192.052 179.223H310.154C315.004 179.223 318.349 180.435 320.493 182.579C322.637 184.723 323.848 188.068 323.848 192.917V311.02C323.848 315.869 322.637 319.214 320.493 321.358C318.349 323.502 315.004 324.714 310.154 324.714H192.052C187.202 324.714 183.857 323.502 181.713 321.358C179.569 319.214 178.358 315.869 178.358 311.02V192.917C178.358 188.068 179.569 184.723 181.713 182.579C183.857 180.435 187.202 179.223 192.052 179.223Z" fill="#15777A"/>
</svg>
