<?xml version="1.0"?>
<svg xmlns="http://www.w3.org/2000/svg" width="505" height="505" viewBox="0 0 505 505" fill="none">
<path d="M252.099 494.752C386.094 494.752 494.717 386.128 494.717 252.134C494.717 118.14 386.094 9.516 252.099 9.516C118.105 9.516 9.48145 118.14 9.48145 252.134C9.48145 386.128 118.105 494.752 252.099 494.752Z" stroke="#00C2C9" stroke-width="18.6071"/>
<path d="M84.9563 338.732L84.9592 338.736C96.562 353.129 113.815 361.418 132.325 361.418H179.305C182.227 361.418 184.557 359.088 184.603 356.21L184.604 356.193V356.176C184.604 353.277 182.232 350.906 179.333 350.906H132.353C117.055 350.906 102.799 344.066 93.1971 332.147C83.5968 320.201 79.9982 304.8 83.2712 289.852C96.84 227.99 126.958 204.71 127.964 203.945C130.258 202.244 130.854 198.949 129.1 196.579C127.395 194.275 124.134 193.694 121.746 195.427L121.742 195.43C120.048 196.665 87.6008 220.944 72.9685 287.577C69.0024 305.645 73.3818 324.308 84.9563 338.732Z" fill="#00C2C9" stroke="#00C2C9" stroke-width="4.12504"/>
<path d="M235.156 82.3074V402.512H157.536C142.666 402.512 130.587 390.407 130.587 375.563C130.587 372.664 128.216 370.293 125.317 370.293C122.43 370.293 120.047 372.623 120.047 375.563C120.047 396.232 136.867 413.052 157.536 413.052H240.426C243.313 413.052 245.696 410.721 245.696 407.782V76.904C245.696 74.0049 243.325 71.6338 240.426 71.6338C187.648 71.6338 139.728 104.811 121.144 154.156V154.158L112.23 177.889L112.229 177.891C109.92 184.059 110.775 190.926 114.507 196.335C118.243 201.748 124.413 204.976 130.966 204.976H181.466C184.365 204.976 186.737 202.605 186.737 199.706C186.737 196.807 184.365 194.436 181.466 194.436H130.994C127.84 194.436 125.009 192.952 123.208 190.355C121.408 187.761 121.014 184.612 122.137 181.643L122.138 181.639L131.051 157.908C131.052 157.908 131.052 157.908 131.052 157.907C147.453 114.281 188.869 84.4199 235.156 82.3074Z" fill="#00C2C9" stroke="#00C2C9" stroke-width="4.12504"/>
<path d="M236.691 367.627C237.721 368.657 239.077 369.167 240.42 369.167C241.763 369.167 243.12 368.657 244.15 367.627C246.204 365.572 246.204 362.222 244.15 360.168L201.322 317.34V242.344C201.322 239.445 198.951 237.074 196.051 237.074C193.164 237.074 190.781 239.405 190.781 242.344V319.528C190.781 320.924 191.337 322.272 192.322 323.258L236.691 367.627Z" fill="#00C2C9" stroke="#00C2C9" stroke-width="4.12504"/>
<path d="M177.017 199.708C177.017 202.608 179.389 204.979 182.288 204.979C185.239 204.979 187.558 202.584 187.558 199.68V133.595C187.558 132.2 187.002 130.851 186.017 129.866L161.519 105.368C159.465 103.314 156.115 103.314 154.06 105.368C152.006 107.422 152.006 110.772 154.06 112.827L177.017 135.784V199.708Z" fill="#00C2C9" stroke="#00C2C9" stroke-width="4.12504"/>
<path d="M139.57 356.148C139.57 359.047 141.941 361.418 144.841 361.418C147.768 361.418 150.111 359.075 150.111 356.148V282.626C150.111 279.727 147.74 277.355 144.841 277.355C141.953 277.355 139.57 279.686 139.57 282.626V356.148Z" fill="#00C2C9" stroke="#00C2C9" stroke-width="4.12504"/>
<path d="M378.275 203.974L378.282 203.979L378.289 203.984L378.29 203.985C378.472 204.122 409.197 227.161 422.963 289.849C426.236 304.797 422.637 320.197 413.039 332.113C403.437 344.034 389.18 350.875 373.881 350.875H326.901C324.002 350.875 321.631 353.246 321.631 356.145C321.631 359.032 323.962 361.415 326.901 361.415H373.853C392.36 361.415 409.642 353.157 421.247 338.761L421.248 338.759C432.853 324.335 437.232 305.671 433.266 287.603C418.634 220.97 386.186 196.69 384.493 195.455L384.489 195.452C382.101 193.72 378.84 194.3 377.134 196.604L377.129 196.612L377.123 196.62C375.39 199.008 375.971 202.269 378.275 203.974Z" fill="#00C2C9" stroke="#00C2C9" stroke-width="4.12504"/>
<path d="M385.038 154.186L385.037 154.185C366.454 104.811 318.534 71.6338 265.784 71.6338C262.885 71.6338 260.514 74.0049 260.514 76.904V407.782C260.514 410.681 262.885 413.052 265.784 413.052H348.674C369.343 413.052 386.163 396.232 386.163 375.563C386.163 372.664 383.792 370.293 380.893 370.293C378.006 370.293 375.623 372.623 375.623 375.563C375.623 390.433 363.518 402.512 348.674 402.512H271.054V82.3074C317.342 84.4191 358.757 114.254 375.158 157.907V157.908L384.072 181.639L384.075 181.648C385.194 184.585 384.802 187.759 383.002 190.355C381.2 192.952 378.37 194.436 375.215 194.436H324.744C321.856 194.436 319.473 196.766 319.473 199.706C319.473 202.593 321.804 204.976 324.744 204.976H375.215C381.792 204.976 387.936 201.781 391.674 196.364C395.406 190.956 396.262 184.059 393.951 177.918C393.951 177.917 393.951 177.917 393.951 177.916L385.038 154.186Z" fill="#00C2C9" stroke="#00C2C9" stroke-width="4.12504"/>
<path d="M262.055 367.627C263.085 368.657 264.441 369.167 265.784 369.167C267.127 369.167 268.483 368.657 269.513 367.627L313.882 323.258C314.867 322.272 315.423 320.924 315.423 319.528V242.344C315.423 239.445 313.052 237.074 310.153 237.074C307.265 237.074 304.882 239.405 304.882 242.344V317.34L262.055 360.168C260 362.222 260 365.572 262.055 367.627Z" fill="#00C2C9" stroke="#00C2C9" stroke-width="4.12504"/>
<path d="M318.639 199.705C318.639 202.593 320.97 204.976 323.909 204.976C326.808 204.976 329.179 202.604 329.179 199.705V135.809L352.136 112.852C354.191 110.798 354.191 107.448 352.136 105.393C350.082 103.339 346.732 103.339 344.677 105.393L320.18 129.891C319.194 130.877 318.639 132.226 318.639 133.621V199.705Z" fill="#00C2C9" stroke="#00C2C9" stroke-width="4.12504"/>
<path d="M356.1 356.148C356.1 359.047 358.471 361.418 361.37 361.418C364.257 361.418 366.64 359.087 366.64 356.148V282.626C366.64 279.738 364.309 277.355 361.37 277.355C358.483 277.355 356.1 279.686 356.1 282.626V356.148Z" fill="#00C2C9" stroke="#00C2C9" stroke-width="4.12504"/>
<path d="M182.182 214.835C190.532 214.835 197.307 208.06 197.307 199.71C197.307 191.359 190.532 184.584 182.182 184.584C173.831 184.584 167.057 191.359 167.057 199.71C167.057 208.06 173.831 214.835 182.182 214.835Z" fill="#00C2C9" stroke="#00C2C9" stroke-width="5.1563"/>
<path d="M179.315 371.272C187.665 371.272 194.44 364.497 194.44 356.147C194.44 347.796 187.665 341.021 179.315 341.021C170.964 341.021 164.189 347.796 164.189 356.147C164.189 364.497 170.964 371.272 179.315 371.272Z" fill="#00C2C9" stroke="#00C2C9" stroke-width="5.1563"/>
<path d="M196.055 257.474C204.405 257.474 211.18 250.699 211.18 242.349C211.18 233.998 204.405 227.224 196.055 227.224C187.705 227.224 180.93 233.998 180.93 242.349C180.93 250.699 187.705 257.474 196.055 257.474Z" fill="#00C2C9" stroke="#00C2C9" stroke-width="5.1563"/>
<path d="M144.852 297.746C153.202 297.746 159.977 290.971 159.977 282.621C159.977 274.238 153.198 267.496 144.852 267.496C136.501 267.496 129.727 274.27 129.727 282.621C129.727 290.971 136.501 297.746 144.852 297.746Z" fill="#00C2C9" stroke="#00C2C9" stroke-width="5.1563"/>
<path d="M308.924 199.71C308.924 208.06 315.699 214.835 324.049 214.835C332.399 214.835 339.174 208.06 339.174 199.71C339.174 191.359 332.399 184.584 324.049 184.584C315.699 184.584 308.924 191.359 308.924 199.71Z" fill="#00C2C9" stroke="#00C2C9" stroke-width="5.1563"/>
<path d="M311.764 356.147C311.764 364.497 318.539 371.272 326.889 371.272C335.239 371.272 342.014 364.497 342.014 356.147C342.014 347.796 335.239 341.021 326.889 341.021C318.539 341.021 311.764 347.796 311.764 356.147Z" fill="#00C2C9" stroke="#00C2C9" stroke-width="5.1563"/>
<path d="M295.037 242.349C295.037 250.699 301.812 257.474 310.162 257.474C318.513 257.474 325.287 250.699 325.287 242.349C325.287 233.998 318.513 227.224 310.162 227.224C301.812 227.224 295.037 233.998 295.037 242.349Z" fill="#00C2C9" stroke="#00C2C9" stroke-width="5.1563"/>
<path d="M346.228 282.621C346.228 290.971 353.003 297.746 361.354 297.746C369.704 297.746 376.479 290.971 376.479 282.621C376.479 274.27 369.704 267.496 361.354 267.496C353.007 267.496 346.228 274.238 346.228 282.621Z" fill="#00C2C9" stroke="#00C2C9" stroke-width="5.1563"/>
</svg>
